HIERARCHY
ROOT Hips
{
    OFFSET 0.000000 0.000000 0.000000
    CHANNELS 6 Xposition Yposition Zposition Zrotation Xrotation Yrotation
    JOINT Chest
    {
        OFFSET -0.000000 0.078597 0.000000
        CHANNELS 3 Zrotation Xrotation Yrotation
        JOINT Chest2
        {
            OFFSET -0.000000 0.230468 0.000000
            CHANNELS 3 Zrotation Xrotation Yrotation
            JOINT Neck
            {
                OFFSET -0.000000 0.249638 0.000000
                CHANNELS 3 Zrotation Xrotation Yrotation
                JOINT Head
                {
                    OFFSET -0.000000 0.103998 0.019170
                    CHANNELS 3 Zrotation Xrotation Yrotation
                    End Site
                    {
                        OFFSET -0.000000 0.191701 0.000000
                    }
                }
            }
            JOINT LeftCollar
            {
                OFFSET 0.038274 0.205938 -0.001496
                CHANNELS 3 Zrotation Xrotation Yrotation
                JOINT LeftShoulder
                {
                    OFFSET 0.132388 0.000000 0.000000
                    CHANNELS 3 Zrotation Xrotation Yrotation
                    JOINT LeftElbow
                    {
                        OFFSET 0.250301 0.000000 0.000000
                        CHANNELS 3 Zrotation Xrotation Yrotation
                        JOINT LeftWrist
                        {
                            OFFSET 0.285291 0.000000 0.000000
                            CHANNELS 3 Zrotation Xrotation Yrotation
                            End Site
                            {
                                OFFSET 0.000000 -0.143776 0.000000
                            }
                        }
                    }
                }
            }
            JOINT RightCollar
            {
                OFFSET -0.038406 0.205938 -0.001496
                CHANNELS 3 Zrotation Xrotation Yrotation
                JOINT RightShoulder
                {
                    OFFSET -0.132388 0.000000 0.000000
                    CHANNELS 3 Zrotation Xrotation Yrotation
                    JOINT RightElbow
                    {
                        OFFSET -0.250301 0.000000 0.000000
                        CHANNELS 3 Zrotation Xrotation Yrotation
                        JOINT RightWrist
                        {
                            OFFSET -0.285291 0.000000 0.000000
                            CHANNELS 3 Zrotation Xrotation Yrotation
                            End Site
                            {
                                OFFSET -0.000000 -0.143776 0.000000
                            }
                        }
                    }
                }
            }
        }
    }
    JOINT LeftHip
    {
        OFFSET 0.095851 0.000000 0.000000
        CHANNELS 3 Zrotation Xrotation Yrotation
        JOINT LeftKnee
        {
            OFFSET -0.000000 -0.406444 0.000000
            CHANNELS 3 Zrotation Xrotation Yrotation
            JOINT LeftAnkle
            {
                OFFSET -0.000000 -0.408443 0.000000
                CHANNELS 3 Zrotation Xrotation Yrotation
                JOINT LeftToe
                {
                    OFFSET -0.000000 -0.062303 0.143776
                    CHANNELS 3 Zrotation Xrotation Yrotation
                    End Site
                    {
                        OFFSET -0.000000 0.000000 0.038340
                    }
                }
            }
        }
    }
    JOINT RightHip
    {
        OFFSET -0.095851 0.000000 0.000000
        CHANNELS 3 Zrotation Xrotation Yrotation
        JOINT RightKnee
        {
            OFFSET -0.000000 -0.406444 0.000000
            CHANNELS 3 Zrotation Xrotation Yrotation
            JOINT RightAnkle
            {
                OFFSET -0.000000 -0.408443 0.000000
                CHANNELS 3 Zrotation Xrotation Yrotation
                JOINT RightToe
                {
                    OFFSET -0.000000 -0.062303 0.143776
                    CHANNELS 3 Zrotation Xrotation Yrotation
                    End Site
                    {
                        OFFSET -0.000000 0.000000 0.038340
                    }
                }
            }
        }
    }
}
MOTION
Frames:    10
Frame Time:    0.016667
0.043407    0.897520    1.544994    -0.225552    1.751581    -175.818756    0.144379    -4.233763    0.411199    -1.840133    0.770970    0.147876    -0.114990    9.400795    -0.302672    -0.226199    2.521256    -0.303542    12.513758    -0.612648    -1.153576    -7.730597    -2.545539    -9.417360    -0.377227    -6.275686    1.395654    89.652733    -4.612425    6.257134    -11.494720    -1.482937    3.027271    14.525388    -4.439508    3.444713    -3.200895    -2.761022    -1.094026    -84.185509    1.603378    -2.872975    5.402075    7.342172    0.116605    -0.579932    -4.759710    0.951931    -7.201976    -4.080634    13.932652    0.000000    0.000000    0.000000    -4.526252    10.884803    0.367841    0.396222    -8.971338    -1.607750    3.892176    -2.135924    -16.642462    0.000000    0.000000    0.000000    
0.043427    0.897537    1.544991    -0.225568    1.743739    -175.817337    0.150812    -4.200929    0.410750    -1.840680    0.740102    0.147261    -0.055840    9.333097    -0.318939    -0.281858    2.490773    -0.299116    12.222640    -0.139078    -1.221670    -7.362004    -3.036398    -9.389736    -0.403239    -6.179412    1.414731    87.833481    -4.951240    6.080782    -11.535480    -1.401444    2.996727    14.582176    -4.630422    3.431148    -3.107816    -2.769195    -1.307258    -84.191505    1.833474    -2.897659    5.405997    7.329859    0.111396    -0.585122    -4.753774    0.913445    -7.212521    -4.076742    13.980467    0.000000    0.000000    0.000000    -4.559158    10.918786    0.378740    0.461073    -9.055082    -1.597824    3.863470    -2.067181    -16.656637    0.000000    0.000000    0.000000    
0.043466    0.897565    1.544934    -0.239151    1.740398    -175.801941    0.028879    -4.258254    0.490791    -1.695830    0.908511    0.177127    0.102010    9.218972    -0.447640    -0.409191    2.246361    -0.380008    12.410863    -0.132541    -1.312282    -7.623528    -3.553979    -9.459978    -0.706010    -6.320027    1.381954    89.730057    -4.545955    6.300846    -11.658243    -1.388113    2.875464    14.654613    -4.725130    3.336082    -3.083020    -2.804487    -1.313384    -83.914009    1.782006    -2.934549    5.399751    7.316592    0.112516    -0.592389    -4.729935    0.878514    -7.228235    -4.060125    14.000283    0.000000    0.000000    0.000000    -4.566832    10.901978    0.341574    0.463383    -9.014323    -1.563535    3.851810    -2.088835    -16.665253    0.000000    0.000000    0.000000    
0.043506    0.897571    1.544886    -0.244002    1.742370    -175.775330    0.151318    -4.110437    0.367903    -1.885567    0.668466    0.132109    0.073569    9.246903    -0.376415    -0.315566    2.283972    -0.326334    12.388868    0.026091    -1.162701    -7.647904    -3.406824    -9.580196    -0.539305    -6.340545    1.485314    89.640205    -4.585673    6.319202    -11.539364    -1.371979    2.990539    14.652001    -4.676825    3.307917    -3.064836    -2.687503    -1.216559    -83.728752    1.668875    -2.811451    5.374857    7.265018    0.113226    -0.542658    -4.616357    0.740415    -7.351068    -4.127763    14.139050    0.000000    0.000000    0.000000    -4.564898    10.900566    0.351315    0.460632    -8.995932    -1.611247    3.841443    -2.089427    -16.647821    0.000000    0.000000    0.000000    
0.043581    0.897567    1.544823    -0.239895    1.742717    -175.745422    0.161224    -4.097164    0.351141    -1.899564    0.669173    0.126324    0.095874    9.160863    -0.375382    -0.264067    2.312840    -0.328018    12.400449    0.036546    -1.202321    -7.686358    -3.337880    -9.614301    -0.510271    -6.275005    1.489965    88.561066    -4.942655    6.206315    -11.533234    -1.310599    2.984384    14.693933    -4.732380    3.283297    -3.050930    -2.667844    -1.211565    -83.664818    1.646737    -2.791223    5.388545    7.252342    0.122200    -0.548290    -4.597225    0.709115    -7.259863    -4.143278    14.104773    0.000000    0.000000    0.000000    -4.521621    10.838449    0.316000    0.405805    -8.857454    -1.658068    3.859644    -2.190902    -16.598660    0.000000    0.000000    0.000000    
0.043647    0.897578    1.544724    -0.239003    1.749249    -175.711700    0.116916    -4.132190    0.372317    -1.853584    0.742257    0.135181    0.142804    9.220221    -0.481394    -0.237711    2.165933    -0.431779    12.331943    -0.300345    -1.495953    -7.668242    -2.737179    -9.459152    -0.243752    -6.200791    1.621124    87.825020    -5.000676    6.102389    -11.482530    -1.270553    2.989309    14.658122    -4.696468    3.180718    -3.045979    -2.650898    -1.322786    -83.349144    1.739993    -2.787153    5.458820    7.321497    0.091496    -0.668388    -4.741097    0.855034    -7.403878    -4.176255    14.023612    0.000000    0.000000    0.000000    -4.529672    10.857774    0.337790    0.440549    -8.825884    -1.223656    3.818208    -2.282787    -17.085388    0.000000    0.000000    0.000000    
0.043660    0.897550    1.544605    -0.245372    1.747290    -175.678955    0.083510    -4.146636    0.346133    -1.750524    0.763535    0.126647    0.000123    9.219302    -0.472536    -0.151272    2.122477    -0.466104    12.265680    -0.312801    -1.612804    -7.623199    -2.646695    -9.250761    -0.475128    -6.395467    1.284433    89.145607    -4.733407    6.354869    -11.610231    -1.268822    2.943304    14.775967    -4.630162    3.230197    -3.072741    -2.680605    -1.301556    -83.426842    1.849454    -2.821708    5.479706    7.355922    0.072145    -0.716315    -4.809211    0.873041    -7.172470    -4.010198    13.932816    0.000000    0.000000    0.000000    -4.530731    10.865924    0.308587    0.444416    -8.819487    -1.238214    3.813105    -2.313215    -17.069523    0.000000    0.000000    0.000000    
0.043722    0.897535    1.544480    -0.245636    1.746872    -175.660065    0.119653    -3.721126    0.265297    -1.868349    0.069273    0.088712    0.099255    9.210835    -0.449805    -0.139247    2.526867    -0.422494    12.276567    -0.113463    -1.324312    -7.578733    -2.611995    -9.516090    -0.613366    -6.464373    1.150570    89.630447    -4.647458    6.443261    -11.385392    -1.224906    2.852016    14.756779    -4.342917    3.365459    -3.060636    -2.699035    -1.223374    -84.001793    1.857567    -2.829031    5.482376    7.356711    0.074180    -0.711140    -4.809117    0.881073    -7.372641    -4.170000    13.997993    0.000000    0.000000    0.000000    -4.527201    10.874976    0.330878    0.445383    -8.816338    -1.288591    3.797897    -2.321029    -17.049593    0.000000    0.000000    0.000000    
0.043709    0.897522    1.544288    -0.256715    1.773174    -175.632767    0.080027    -3.721000    0.241615    -1.762252    0.099159    0.081448    -0.001407    9.218309    -0.445365    -0.152604    2.525066    -0.437615    12.219031    -0.142512    -1.408678    -7.650064    -2.465848    -9.512623    -0.482129    -6.416326    1.179444    89.312302    -4.819643    6.382454    -11.520033    -1.287344    2.817057    14.887047    -4.279965    3.401492    -3.075345    -2.791912    -1.001806    -83.490578    1.264287    -2.890684    5.468234    7.397631    0.031569    -0.693800    -4.818829    0.889036    -7.168493    -3.998329    13.909993    0.000000    0.000000    0.000000    -4.542853    10.914322    0.321200    0.463308    -8.805030    -1.291016    3.790975    -2.339909    -17.050611    0.000000    0.000000    0.000000    
0.043760    0.897492    1.544114    -0.256892    1.779719    -175.624924    0.042778    -4.197709    0.287076    -1.714086    0.883852    0.108529    0.078900    9.178709    -0.505540    -0.206877    2.149313    -0.475007    12.350525    -0.331462    -1.685524    -7.720460    -2.684659    -9.406554    -0.557821    -6.399130    1.184029    89.435997    -4.573110    6.370891    -11.562124    -1.404632    2.892610    14.874329    -4.478241    3.326572    -3.037806    -2.763785    -1.057275    -83.875725    1.444839    -2.869091    5.472127    7.417661    0.020631    -0.696094    -4.828824    0.887101    -7.175415    -3.997820    13.924551    0.000000    0.000000    0.000000    -4.547628    10.923933    0.314464    0.483481    -8.786534    -1.288298    3.787032    -2.367640    -17.051323    0.000000    0.000000    0.000000    
